<svg
  xmlns="http://www.w3.org/2000/svg"
  viewBox="0 0 64 64"
>
  <!-- Hintergrund -->
  <rect x="0" y="0" width="64" height="64" rx="14" fill="#ffffff" />

  <!-- dezenter Schatten unter dem Auto -->
  <ellipse cx="32" cy="47" rx="16" ry="3.5" fill="#E5E7EB" />

  <!-- Karosserie oben -->
  <path
    d="M18 30
       L23 22
       Q24 20 26.5 20
       L37.5 20
       Q40 20 41 22
       L46 30
       Z"
    fill="#0F172A"
  />

  <!-- Karosserie unten -->
  <path
    d="M14 30
       H50
       Q53 30 54 33
       L56 39
       Q56.3 40 55.5 40.5
       Q55 41 54 41
       H10
       Q9 41 8.5 40.5
       Q7.7 40 8 39
       L10 33
       Q11 30 14 30
       Z"
    fill="#111827"
  />

  <!-- Fenster -->
  <path
    d="M24 24
       H31
       Q32 24 32.5 24.7
       L35 29
       H22
       Z"
    fill="#EFF6FF"
  />
  <path
    d="M33 24
       H40
       L44 29
       H36.5
       L34.5 25.3
       Q34.1 24 33 24
       Z"
    fill="#DBEAFE"
  />

  <!-- Linie an der Seite (kleines Detail) -->
  <rect x="20" y="34" width="24" height="1.3" rx="0.7" fill="#1D4ED8" />

  <!-- Räder -->
  <circle cx="20" cy="41" r="4.2" fill="#020617" />
  <circle cx="44" cy="41" r="4.2" fill="#020617" />
  <circle cx="20" cy="41" r="2" fill="#E5E7EB" />
  <circle cx="44" cy="41" r="2" fill="#E5E7EB" />

  <!-- Kleines Licht vorne -->
  <rect x="50.5" y="34.2" width="2.4" height="3" rx="1.2" fill="#BFDBFE" />
</svg>
